<svg xmlns="http://www.w3.org/2000/svg" xmlns:xlink="http://www.w3.org/1999/xlink" version="1.1" width="256" height="256" viewBox="0 0 256 256" xml:space="preserve">

<defs>
</defs>
<g style="stroke: none; stroke-width: 0; stroke-dasharray: none; stroke-linecap: butt; stroke-linejoin: miter; stroke-miterlimit: 10; fill: none; fill-rule: nonzero; opacity: 1;" transform="translate(1.4065934065934016 1.4065934065934016) scale(2.81 2.81)" >
	<path d="M 45 66.563 c -18.352 0 -33.282 -14.93 -33.282 -33.282 C 11.718 14.93 26.648 0 45 0 s 33.282 14.93 33.282 33.282 C 78.282 51.634 63.352 66.563 45 66.563 z" style="stroke: none; stroke-width: 1; stroke-dasharray: none; stroke-linecap: butt; stroke-linejoin: miter; stroke-miterlimit: 10; fill: rgb(69,188,25); fill-rule: nonzero; opacity: 1;" transform=" matrix(1 0 0 1 0 0) " stroke-linecap="round" />
	<path d="M 45.063 90 c -1.104 0 -2 -0.896 -2 -2 V 26.368 c 0 -1.104 0.896 -2 2 -2 c 1.105 0 2 0.896 2 2 V 88 C 47.063 89.104 46.168 90 45.063 90 z" style="stroke: none; stroke-width: 1; stroke-dasharray: none; stroke-linecap: butt; stroke-linejoin: miter; stroke-miterlimit: 10; fill: rgb(122,70,41); fill-rule: nonzero; opacity: 1;" transform=" matrix(1 0 0 1 0 0) " stroke-linecap="round" />
	<path d="M 45.063 42.206 c -0.538 0 -1.075 -0.216 -1.469 -0.642 c -0.75 -0.811 -0.701 -2.076 0.11 -2.826 l 9.412 -8.706 c 0.811 -0.75 2.075 -0.702 2.827 0.11 c 0.75 0.811 0.7 2.076 -0.11 2.826 l -9.413 8.706 C 46.036 42.03 45.549 42.206 45.063 42.206 z" style="stroke: none; stroke-width: 1; stroke-dasharray: none; stroke-linecap: butt; stroke-linejoin: miter; stroke-miterlimit: 10; fill: rgb(122,70,41); fill-rule: nonzero; opacity: 1;" transform=" matrix(1 0 0 1 0 0) " stroke-linecap="round" />
	<path d="M 45.063 55.585 c -0.486 0 -0.973 -0.176 -1.357 -0.531 L 30.559 42.895 c -0.811 -0.75 -0.86 -2.015 -0.11 -2.826 c 0.75 -0.811 2.015 -0.86 2.826 -0.11 l 13.146 12.158 c 0.811 0.75 0.86 2.016 0.11 2.827 C 46.137 55.369 45.601 55.585 45.063 55.585 z" style="stroke: none; stroke-width: 1; stroke-dasharray: none; stroke-linecap: butt; stroke-linejoin: miter; stroke-miterlimit: 10; fill: rgb(122,70,41); fill-rule: nonzero; opacity: 1;" transform=" matrix(1 0 0 1 0 0) " stroke-linecap="round" />
	<path d="M 58.083 90 H 32.108 c -1.104 0 -2 -0.896 -2 -2 s 0.896 -2 2 -2 h 25.975 c 1.104 0 2 0.896 2 2 S 59.188 90 58.083 90 z" style="stroke: none; stroke-width: 1; stroke-dasharray: none; stroke-linecap: butt; stroke-linejoin: miter; stroke-miterlimit: 10; fill: rgb(69,188,25); fill-rule: nonzero; opacity: 1;" transform=" matrix(1 0 0 1 0 0) " stroke-linecap="round" />
</g>
</svg>